<?xml version="1.0" encoding="utf-8"?>
<!-- Generator: Adobe Illustrator 16.0.4, SVG Export Plug-In . SVG Version: 6.00 Build 0)  -->
<!DOCTYPE svg PUBLIC "-//W3C//DTD SVG 1.1//EN" "http://www.w3.org/Graphics/SVG/1.1/DTD/svg11.dtd">
<svg version="1.1" id="Capa_1" xmlns="http://www.w3.org/2000/svg" xmlns:xlink="http://www.w3.org/1999/xlink" x="0px" y="0px"
	 width="512px" height="512px" viewBox="0 0 512 512" enable-background="new 0 0 512 512" xml:space="preserve">
<path d="M432,160c-17.6,0-32,14.4-32,32v128c0,17.6,14.4,32,32,32s32-14.4,32-32V192C464,174.4,449.6,160,432,160z M48,160
	c-17.6,0-32,14.4-32,32v128c0,17.6,14.4,32,32,32s32-14.4,32-32V192C80,174.4,65.599,160,48,160z M96,368c0,26.51,21.49,48,48,48h16
	v64c0,17.6,14.4,32,32,32s32-14.4,32-32v-64h32v64c0,17.6,14.4,32,32,32s32-14.4,32-32v-64h16c26.51,0,48-21.49,48-48V192H96V368z
	 M299.299,44.747l20.252-38.903c1.017-1.951,0.25-4.379-1.701-5.395c-1.95-1.016-4.379-0.25-5.395,1.701l-20.559,39.493
	C275.797,35.419,258.299,32,240,32c-18.298,0-35.796,3.419-51.898,9.643L167.544,2.151c-1.016-1.951-3.443-2.717-5.395-1.701
	c-1.952,1.016-2.717,3.443-1.701,5.395l20.25,38.904c-45.315,20.509-78.12,63.792-83.81,115.252h286.22
	C377.42,108.539,344.615,65.257,299.299,44.747z M176,135.2c-12.813,0-23.2-10.387-23.2-23.2s10.387-23.2,23.2-23.2
	s23.2,10.387,23.2,23.2C199.199,124.813,188.813,135.2,176,135.2z M304,135.2c-12.812,0-23.201-10.387-23.201-23.2
	S291.188,88.8,304,88.8c12.812,0,23.199,10.387,23.199,23.2S316.812,135.2,304,135.2z"/>
</svg>
