<?xml version="1.0" encoding="utf-8"?>
<!-- Generator: Adobe Illustrator 16.0.4, SVG Export Plug-In . SVG Version: 6.00 Build 0)  -->
<!DOCTYPE svg PUBLIC "-//W3C//DTD SVG 1.1//EN" "http://www.w3.org/Graphics/SVG/1.1/DTD/svg11.dtd">
<svg version="1.1" id="Capa_1" xmlns="http://www.w3.org/2000/svg" xmlns:xlink="http://www.w3.org/1999/xlink" x="0px" y="0px"
	 width="512px" height="512px" viewBox="0 0 512 512" enable-background="new 0 0 512 512" xml:space="preserve">
<path d="M256,0C114.615,0,0,114.615,0,256s114.615,256,256,256s256-114.615,256-256S397.385,0,256,0z M288.047,190.258
	c1.016-23.727,22.605-39.474,40.796-48.569c17.371-8.686,34.552-13.03,35.274-13.211c8.573-2.144,17.26,3.069,19.402,11.642
	c2.144,8.573-3.068,17.259-11.642,19.403c-8.812,2.225-19.261,6.06-28.468,10.675c5.324,5.715,8.587,13.376,8.587,21.803
	c0,17.673-14.327,32-32,32s-32-14.327-32-32C287.998,191.416,288.016,190.835,288.047,190.258z M128.479,140.12
	c2.144-8.573,10.83-13.786,19.403-11.642c0.723,0.181,17.903,4.526,35.274,13.211c18.19,9.096,39.78,24.842,40.796,48.569
	c0.031,0.577,0.049,1.157,0.049,1.742c0,17.673-14.327,32-32,32s-32-14.327-32-32c0-8.427,3.263-16.088,8.587-21.803
	c-9.207-4.615-19.655-8.45-28.468-10.675C131.549,157.379,126.337,148.692,128.479,140.12z M352.049,390.37
	C332.462,357.796,296.777,336,256,336c-40.778,0-76.462,21.796-96.049,54.37l-41.164-24.698C146.767,319.137,197.745,288,256,288
	c58.254,0,109.232,31.137,137.213,77.672L352.049,390.37z"/>
</svg>
