<?xml version="1.0" encoding="utf-8"?>
<!-- Generator: Adobe Illustrator 16.0.4, SVG Export Plug-In . SVG Version: 6.00 Build 0)  -->
<!DOCTYPE svg PUBLIC "-//W3C//DTD SVG 1.1//EN" "http://www.w3.org/Graphics/SVG/1.1/DTD/svg11.dtd">
<svg version="1.1" id="Capa_1" xmlns="http://www.w3.org/2000/svg" xmlns:xlink="http://www.w3.org/1999/xlink" x="0px" y="0px"
	 width="512px" height="512px" viewBox="0 0 512 512" enable-background="new 0 0 512 512" xml:space="preserve">
<path d="M256,0c141.385,0,256,114.615,256,256S397.385,512,256,512S0,397.385,0,256S114.615,0,256,0z M256,464
	c114.875,0,208-93.125,208-208S370.875,48,256,48S48,141.125,48,256S141.125,464,256,464z M105.372,233.373l128.001-128
	c12.496-12.497,32.757-12.497,45.254,0s12.497,32.758,0,45.255L205.255,224H384c17.673,0,32,14.327,32,32s-14.327,32-32,32H205.255
	l73.373,73.372c12.497,12.497,12.497,32.759,0,45.256C272.379,412.876,264.189,416,256,416c-8.189,0-16.379-3.124-22.627-9.372
	l-128.001-128C92.876,266.131,92.876,245.869,105.372,233.373z"/>
</svg>
