<?xml version="1.0" encoding="utf-8"?>
<!-- Generator: Adobe Illustrator 16.0.4, SVG Export Plug-In . SVG Version: 6.00 Build 0)  -->
<!DOCTYPE svg PUBLIC "-//W3C//DTD SVG 1.1//EN" "http://www.w3.org/Graphics/SVG/1.1/DTD/svg11.dtd">
<svg version="1.1" id="Capa_1" xmlns="http://www.w3.org/2000/svg" xmlns:xlink="http://www.w3.org/1999/xlink" x="0px" y="0px"
	 width="512px" height="512px" viewBox="0 0 512 512" enable-background="new 0 0 512 512" xml:space="preserve">
<path d="M32,0h192v32H32V0z M288,0h192v32H288V0z M476,160h-28V32H320v128H192V32H64v128H36c-19.8,0-36,16.2-36,36v280
	c0,19.8,16.2,36,36,36h152c19.8,0,36-16.2,36-36V288h64v188c0,19.8,16.2,36,36,36h152c19.8,0,36-16.2,36-36V196
	C512,176.2,495.8,160,476,160z M174,480H50c-9.9,0-18-7.2-18-16s8.1-16,18-16h124c9.9,0,18,7.2,18,16S183.9,480,174,480z M272,256
	h-32c-8.8,0-16-7.2-16-16s7.2-16,16-16h32c8.8,0,16,7.2,16,16S280.8,256,272,256z M462,480H338c-9.9,0-18-7.2-18-16s8.1-16,18-16
	h124c9.9,0,18,7.2,18,16S471.9,480,462,480z"/>
</svg>
