<?xml version="1.0" encoding="utf-8"?>
<!-- Generator: Adobe Illustrator 16.0.4, SVG Export Plug-In . SVG Version: 6.00 Build 0)  -->
<!DOCTYPE svg PUBLIC "-//W3C//DTD SVG 1.1//EN" "http://www.w3.org/Graphics/SVG/1.1/DTD/svg11.dtd">
<svg version="1.1" id="Capa_1" xmlns="http://www.w3.org/2000/svg" xmlns:xlink="http://www.w3.org/1999/xlink" x="0px" y="0px"
	 width="512px" height="512px" viewBox="0 0 512 512" enable-background="new 0 0 512 512" xml:space="preserve">
<path d="M256,96c-27.466,0-53.994,4.331-78.847,12.871c-23.356,8.027-44.153,19.372-61.814,33.722C82.232,169.492,64,204.085,64,240
	c0,20.148,5.594,39.689,16.626,58.076c11.376,18.96,28.491,36.293,49.494,50.126c15.178,9.996,25.39,25.974,28.088,43.946
	c0.9,5.992,1.464,12.045,1.685,18.062c3.735-3.097,7.375-6.423,10.94-9.988c12.077-12.076,28.39-18.744,45.251-18.744
	c2.684,0,5.381,0.168,8.078,0.512C234.649,383.323,245.361,384,256,384c27.467,0,53.994-4.33,78.847-12.871
	c23.356-8.027,44.153-19.372,61.814-33.722C429.768,310.509,448,275.915,448,240s-18.232-70.508-51.339-97.407
	c-17.661-14.349-38.458-25.695-61.814-33.722C309.994,100.331,283.467,96,256,96z M256,32L256,32c141.385,0,256,93.125,256,208
	c0,114.876-114.615,208-256,208c-13.578,0-26.905-0.867-39.912-2.522C161.099,500.467,95.463,510.328,32,511.776v-13.458
	c34.268-16.789,64-47.37,64-82.318c0-4.877-0.379-9.665-1.082-14.348C37.02,363.52,0,305.275,0,240C0,125.125,114.615,32,256,32z"/>
</svg>
