<?xml version="1.0" encoding="utf-8"?>
<!-- Generator: Adobe Illustrator 16.0.4, SVG Export Plug-In . SVG Version: 6.00 Build 0)  -->
<!DOCTYPE svg PUBLIC "-//W3C//DTD SVG 1.1//EN" "http://www.w3.org/Graphics/SVG/1.1/DTD/svg11.dtd">
<svg version="1.1" id="Capa_1" xmlns="http://www.w3.org/2000/svg" xmlns:xlink="http://www.w3.org/1999/xlink" x="0px" y="0px"
	 width="512px" height="512px" viewBox="0 0 512 512" enable-background="new 0 0 512 512" xml:space="preserve">
<path d="M512,214.628c0-100.463-29.396-181.969-65.741-182.613c0.146-0.003,0.289-0.015,0.437-0.015h-41.472
	c0,0-97.399,73.168-237.615,101.877c-4.28,22.646-7.015,49.637-7.015,80.751c0,31.114,2.733,58.104,7.015,80.75
	c140.214,28.709,237.615,101.878,237.615,101.878h41.472c-0.146,0-0.289-0.012-0.437-0.016C482.607,396.596,512,315.091,512,214.628
	z M432.412,369.626c-4.691,0-9.766-4.871-12.373-7.774c-6.315-7.031-12.396-17.979-17.594-31.664
	c-11.628-30.615-18.033-71.654-18.033-115.562c0-43.905,6.405-84.945,18.033-115.561c5.196-13.684,11.28-24.633,17.594-31.664
	c2.607-2.906,7.682-7.776,12.373-7.776c4.689,0,9.768,4.872,12.372,7.776c6.316,7.032,12.397,17.979,17.594,31.664
	c11.629,30.615,18.034,71.656,18.034,115.561c0,43.901-6.405,84.944-18.034,115.562c-5.195,13.685-11.281,24.633-17.594,31.664
	C442.18,364.755,437.104,369.626,432.412,369.626z M125.906,214.628c0-25.975,1.905-51.215,5.526-74.547
	c-23.686,3.277-44.471,5.162-70.17,5.162c-33.529,0-33.529,0-33.529,0L0,192.586v44.085l27.73,47.343c0,0,0,0,33.53,0
	c25.699,0,46.484,1.887,70.17,5.162C127.812,265.844,125.906,240.603,125.906,214.628z M184.075,321.086l-63.999-12.255
	l40.921,160.771c2.118,8.317,10.372,12.52,18.343,9.327l59.278-23.726c7.972-3.188,11.164-11.982,7.098-19.542L184.075,321.086z
	 M432.412,274.365c-1.81,0-3.764-1.877-4.77-2.996c-2.435-2.71-4.777-6.93-6.78-12.204c-4.481-11.8-6.95-27.617-6.95-44.539
	s2.469-32.739,6.95-44.539c2.003-5.274,4.348-9.494,6.78-12.204c1.006-1.12,2.96-2.997,4.77-2.997c1.808,0,3.765,1.878,4.769,2.997
	c2.436,2.71,4.778,6.929,6.78,12.204c4.482,11.799,6.951,27.617,6.951,44.539c0,16.921-2.469,32.739-6.951,44.539
	c-2.002,5.274-4.348,9.494-6.78,12.204C436.177,272.488,434.221,274.365,432.412,274.365z"/>
</svg>
