<?xml version="1.0" encoding="utf-8"?>
<!-- Generator: Adobe Illustrator 16.0.4, SVG Export Plug-In . SVG Version: 6.00 Build 0)  -->
<!DOCTYPE svg PUBLIC "-//W3C//DTD SVG 1.1//EN" "http://www.w3.org/Graphics/SVG/1.1/DTD/svg11.dtd">
<svg version="1.1" id="Capa_1" xmlns="http://www.w3.org/2000/svg" xmlns:xlink="http://www.w3.org/1999/xlink" x="0px" y="0px"
	 width="512px" height="512px" viewBox="0 0 512 512" enable-background="new 0 0 512 512" xml:space="preserve">
<path d="M256,0C114.615,0,0,114.615,0,256s114.615,256,256,256s256-114.615,256-256S397.385,0,256,0z M151.418,417.076
	C156.971,401.76,160,385.232,160,368c0-62.175-39.405-115.146-94.604-135.303c5.105-42.462,24.127-81.749,54.839-112.462
	C156.5,83.972,204.715,64,256,64s99.5,19.972,135.765,56.235c30.714,30.713,49.734,70,54.842,112.462
	C391.405,252.854,352,305.825,352,368c0,17.234,3.03,33.76,8.583,49.075C329.73,437.196,293.698,448,256,448
	C218.303,448,182.271,437.196,151.418,417.076z M275.877,320.498C282.816,322.245,288,328.538,288,336v32c0,8.8-7.2,16-16,16h-32
	c-8.8,0-16-7.2-16-16v-32c0-7.462,5.184-13.755,12.123-15.502L248,96h16L275.877,320.498z"/>
</svg>
