<?xml version="1.0" encoding="utf-8"?>
<!-- Generator: Adobe Illustrator 16.0.4, SVG Export Plug-In . SVG Version: 6.00 Build 0)  -->
<!DOCTYPE svg PUBLIC "-//W3C//DTD SVG 1.1//EN" "http://www.w3.org/Graphics/SVG/1.1/DTD/svg11.dtd">
<svg version="1.1" id="Capa_1" xmlns="http://www.w3.org/2000/svg" xmlns:xlink="http://www.w3.org/1999/xlink" x="0px" y="0px"
	 width="512px" height="512px" viewBox="0 0 512 512" enable-background="new 0 0 512 512" xml:space="preserve">
<path d="M368.01,317.98C378.193,299.615,384,278.486,384,256c0-51.657-30.604-96.162-74.667-116.386
	C325.695,124.965,336,103.689,336,80c0-44.183-35.816-80-80-80c-44.183,0-80,35.817-80,80c0,23.69,10.305,44.965,26.667,59.614
	C158.604,159.838,128,204.343,128,256c0,22.486,5.806,43.615,15.99,61.98C77.044,356.713,32,429.094,32,512h448
	C480,429.094,434.956,356.713,368.01,317.98z"/>
</svg>
