<?xml version="1.0" encoding="utf-8"?>
<!-- Generator: Adobe Illustrator 16.0.4, SVG Export Plug-In . SVG Version: 6.00 Build 0)  -->
<!DOCTYPE svg PUBLIC "-//W3C//DTD SVG 1.1//EN" "http://www.w3.org/Graphics/SVG/1.1/DTD/svg11.dtd">
<svg version="1.1" id="Capa_1" xmlns="http://www.w3.org/2000/svg" xmlns:xlink="http://www.w3.org/1999/xlink" x="0px" y="0px"
	 width="512px" height="512px" viewBox="0 0 512 512" enable-background="new 0 0 512 512" xml:space="preserve">
<path d="M129.139,223.271L55.873,96.37C102.782,37.638,174.99,0,256,0c93.716,0,175.655,50.368,220.266,125.5H267.381
	c-3.752-0.325-7.546-0.5-11.381-0.5C195.063,125,143.711,166.822,129.139,223.271z M347.653,162.5h146.729
	C505.753,191.465,512,223.002,512,256c0,140.413-113.05,254.402-253.093,255.963l104.696-181.339
	C378.344,309.436,387,283.711,387,256C387,219.415,371.918,186.29,347.653,162.5z M163,256c0-51.28,41.72-93,93-93
	c51.28,0,93,41.72,93,93c0,51.279-41.72,93-93,93C204.72,349,163,307.279,163,256z M291.091,382.221L217.802,509.16
	C94.536,490.718,0,384.402,0,256c0-45.609,11.942-88.423,32.848-125.512l104.515,181.028C158.297,356.07,203.601,387,256,387
	C268.15,387,279.918,385.33,291.091,382.221z"/>
</svg>
