<?xml version="1.0" encoding="utf-8"?>
<!-- Generator: Adobe Illustrator 16.0.4, SVG Export Plug-In . SVG Version: 6.00 Build 0)  -->
<!DOCTYPE svg PUBLIC "-//W3C//DTD SVG 1.1//EN" "http://www.w3.org/Graphics/SVG/1.1/DTD/svg11.dtd">
<svg version="1.1" id="Capa_1" xmlns="http://www.w3.org/2000/svg" xmlns:xlink="http://www.w3.org/1999/xlink" x="0px" y="0px"
	 width="512px" height="512px" viewBox="0 0 512 512" enable-background="new 0 0 512 512" xml:space="preserve">
<path d="M464,64H48C21.6,64,0,85.6,0,112v288c0,26.4,21.6,48,48,48h416c26.4,0,48-21.6,48-48V112C512,85.6,490.4,64,464,64z M48,96
	h416c8.673,0,16,7.327,16,16v48H32v-48C32,103.327,39.327,96,48,96z M464,416H48c-8.673,0-16-7.327-16-16V256h448v144
	C480,408.673,472.673,416,464,416z M64,320h32v64H64V320z M128,320h32v64h-32V320z M192,320h32v64h-32V320z"/>
</svg>
