<?xml version="1.0" encoding="utf-8"?>
<!-- Generator: Adobe Illustrator 16.0.4, SVG Export Plug-In . SVG Version: 6.00 Build 0)  -->
<!DOCTYPE svg PUBLIC "-//W3C//DTD SVG 1.1//EN" "http://www.w3.org/Graphics/SVG/1.1/DTD/svg11.dtd">
<svg version="1.1" id="Capa_1" xmlns="http://www.w3.org/2000/svg" xmlns:xlink="http://www.w3.org/1999/xlink" x="0px" y="0px"
	 width="512px" height="512px" viewBox="0 0 512 512" enable-background="new 0 0 512 512" xml:space="preserve">
<path d="M256,0C114.615,0,0,114.615,0,256s114.615,256,256,256s256-114.615,256-256S397.385,0,256,0z M256,448
	c-106.039,0-192-85.961-192-192S149.961,64,256,64s192,85.961,192,192S362.039,448,256,448z M224,128c0,17.673,14.327,32,32,32
	c17.674,0,32-14.327,32-32s-14.326-32-32-32C238.327,96,224,110.327,224,128z M320,160c0,17.673,14.327,32,32,32s32-14.327,32-32
	s-14.327-32-32-32S320,142.327,320,160z M128,160c0,17.673,14.327,32,32,32s32-14.327,32-32s-14.327-32-32-32S128,142.327,128,160z
	 M224,352v32h64v-32l-32-160L224,352z"/>
</svg>
