<?xml version="1.0" encoding="utf-8"?>
<!-- Generator: Adobe Illustrator 16.0.4, SVG Export Plug-In . SVG Version: 6.00 Build 0)  -->
<!DOCTYPE svg PUBLIC "-//W3C//DTD SVG 1.1//EN" "http://www.w3.org/Graphics/SVG/1.1/DTD/svg11.dtd">
<svg version="1.1" id="Capa_1" xmlns="http://www.w3.org/2000/svg" xmlns:xlink="http://www.w3.org/1999/xlink" x="0px" y="0px"
	 width="512px" height="512px" viewBox="0 0 512 512" enable-background="new 0 0 512 512" xml:space="preserve">
<path d="M426,0H86C38.7,0,0,38.7,0,86v340c0,47.3,38.7,86,86,86h340c47.3,0,86-38.7,86-86V86C512,38.7,473.3,0,426,0z M480,384H288
	V266c0,0,35.167,0.5,54,20v34h77.205c-5.91-18.941-18.534-37.557-36.564-53.332C351.651,239.553,301.044,226,256,226v158H32v-48
	c0-21.698,7.325-43.27,21.182-62.38c12.297-16.959,29.432-31.916,50.93-44.457c25.216-14.709,55.281-25.354,87.888-31.389V128h64v64
	c73.5,0,110.806,13.198,151.889,37.163c21.498,12.541,38.634,27.498,50.931,44.457C472.676,292.73,480,314.302,480,336V384z
	 M99.795,320c5.91-18.941,18.535-37.557,36.564-53.332c15.77-13.798,34.81-24.594,55.641-31.878V320H99.795z"/>
</svg>
