<?xml version="1.0" encoding="utf-8"?>
<!-- Generator: Adobe Illustrator 16.0.4, SVG Export Plug-In . SVG Version: 6.00 Build 0)  -->
<!DOCTYPE svg PUBLIC "-//W3C//DTD SVG 1.1//EN" "http://www.w3.org/Graphics/SVG/1.1/DTD/svg11.dtd">
<svg version="1.1" id="Capa_1" xmlns="http://www.w3.org/2000/svg" xmlns:xlink="http://www.w3.org/1999/xlink" x="0px" y="0px"
	 width="512px" height="512px" viewBox="0 0 512 512" enable-background="new 0 0 512 512" xml:space="preserve">
<path d="M501.066,157.121l-50.554-50.552c-12.396-12.397-32.685-32.684-45.081-45.082l-50.553-50.552
	c-12.396-12.397-34.477-14.583-49.064-4.858L167.595,98.223c-14.588,9.726-20.109,30.514-12.268,46.195l35.243,70.487
	c1.077,2.153,2.323,4.448,3.695,6.83L16,400L0,512h96v-32h64v-64h64v-64h64v-35.593c3.198,1.905,6.268,3.608,9.096,5.022
	l70.485,35.243c15.683,7.841,36.47,2.319,46.195-12.269l92.146-138.22C515.65,191.598,513.462,169.519,501.066,157.121z
	 M75.314,427.312l-22.627-22.627l155.786-155.785l22.627,22.626L75.314,427.312z M458.51,211.882l-22.628,22.628
	c-6.223,6.222-16.403,6.222-22.627,0L277.49,98.745c-6.223-6.222-6.223-16.405,0-22.627l22.628-22.628
	c6.223-6.222,16.403-6.222,22.627,0L458.51,189.255C464.733,195.477,464.733,205.66,458.51,211.882z"/>
</svg>
