<?xml version="1.0" encoding="utf-8"?>
<!-- Generator: Adobe Illustrator 16.0.4, SVG Export Plug-In . SVG Version: 6.00 Build 0)  -->
<!DOCTYPE svg PUBLIC "-//W3C//DTD SVG 1.1//EN" "http://www.w3.org/Graphics/SVG/1.1/DTD/svg11.dtd">
<svg version="1.1" id="Capa_1" xmlns="http://www.w3.org/2000/svg" xmlns:xlink="http://www.w3.org/1999/xlink" x="0px" y="0px"
	 width="512px" height="512px" viewBox="0 0 512 512" enable-background="new 0 0 512 512" xml:space="preserve">
<path d="M464,64H48C21.6,64,0,85.6,0,112v320c0,26.4,21.6,48,48,48h416c26.4,0,48-21.6,48-48V112C512,85.6,490.4,64,464,64z
	 M199.37,275.186L64,380.632V129.811L199.37,275.186z M88.19,128h335.62L256,254L88.19,128z M204.644,280.85L256,336l51.355-55.15
	L412.632,416H99.368L204.644,280.85z M312.63,275.186L448,129.811v250.821L312.63,275.186z"/>
</svg>
