<?xml version="1.0" encoding="utf-8"?>
<!-- Generator: Adobe Illustrator 16.0.4, SVG Export Plug-In . SVG Version: 6.00 Build 0)  -->
<!DOCTYPE svg PUBLIC "-//W3C//DTD SVG 1.1//EN" "http://www.w3.org/Graphics/SVG/1.1/DTD/svg11.dtd">
<svg version="1.1" id="Capa_1" xmlns="http://www.w3.org/2000/svg" xmlns:xlink="http://www.w3.org/1999/xlink" x="0px" y="0px"
	 width="512px" height="512px" viewBox="0 0 512 512" enable-background="new 0 0 512 512" xml:space="preserve">
<path d="M319.998,224c-17.673,0-32-14.327-31.999-32.001c0-0.585,0.019-1.165,0.049-1.742c1.017-23.727,22.606-39.473,40.796-48.569
	c17.371-8.685,34.551-13.03,35.274-13.211c8.573-2.144,17.259,3.069,19.403,11.642c2.142,8.573-3.07,17.259-11.643,19.403
	c-8.812,2.225-19.261,6.06-28.468,10.675c5.324,5.715,8.587,13.376,8.587,21.803C351.998,209.673,337.671,224,319.998,224z
	 M140.121,159.522c-8.572-2.143-13.784-10.83-11.641-19.402c2.143-8.573,10.83-13.786,19.403-11.642
	c0.722,0.181,17.903,4.525,35.274,13.211c18.191,9.095,39.78,24.842,40.796,48.569c0.031,0.577,0.049,1.158,0.049,1.742
	c0,17.673-14.327,32-32,32s-32-14.327-32-32c0-8.427,3.263-16.088,8.587-21.803C159.382,165.582,148.933,161.747,140.121,159.522z
	 M256,368c40.777,0,76.462-21.796,96.049-54.37l41.164,24.698C365.232,384.863,314.255,416,256,416s-109.232-31.137-137.213-77.672
	l41.164-24.698C179.538,346.204,215.222,368,256,368z M512,32c0-22.758-4.762-44.4-13.326-64
	c-16.788,38.418-48.224,68.966-87.247,84.589C368.33,19.609,314.459,0,256,0S143.67,19.609,100.573,52.589
	C61.549,36.966,30.114,6.418,13.326-32C4.762-12.4,0,9.242,0,32c0,36.787,12.425,70.664,33.294,97.689
	C12.109,166.96,0,210.064,0,256c0,141.385,114.615,256,256,256s256-114.615,256-256c0-45.936-12.109-89.04-33.294-126.311
	C499.575,102.664,512,68.787,512,32z M256,464c-114.875,0-208-93.125-208-208S141.125,48,256,48s208,93.125,208,208
	S370.875,464,256,464z"/>
</svg>
