<?xml version="1.0" encoding="utf-8"?>
<!-- Generator: Adobe Illustrator 16.0.4, SVG Export Plug-In . SVG Version: 6.00 Build 0)  -->
<!DOCTYPE svg PUBLIC "-//W3C//DTD SVG 1.1//EN" "http://www.w3.org/Graphics/SVG/1.1/DTD/svg11.dtd">
<svg version="1.1" id="Capa_1" xmlns="http://www.w3.org/2000/svg" xmlns:xlink="http://www.w3.org/1999/xlink" x="0px" y="0px"
	 width="512px" height="512px" viewBox="0 0 512 512" enable-background="new 0 0 512 512" xml:space="preserve">
<path d="M512,32c0-22.758-4.762-44.4-13.326-64c-16.788,38.418-48.224,68.966-87.247,84.589C368.33,19.609,314.459,0,256,0
	S143.67,19.609,100.573,52.589C61.549,36.966,30.114,6.418,13.326-32C4.762-12.4,0,9.242,0,32c0,36.787,12.425,70.664,33.294,97.689
	C12.109,166.96,0,210.064,0,256c0,141.385,114.615,256,256,256s256-114.615,256-256c0-45.936-12.109-89.04-33.294-126.311
	C499.575,102.664,512,68.787,512,32z M288.047,190.258c1.016-23.727,22.605-39.474,40.796-48.569
	c17.371-8.686,34.552-13.03,35.274-13.211c8.573-2.144,17.26,3.069,19.402,11.642c2.144,8.573-3.068,17.259-11.642,19.403
	c-8.812,2.225-19.261,6.06-28.468,10.675c5.324,5.715,8.587,13.376,8.587,21.803c0,17.673-14.327,32-32,32s-32-14.327-32-32
	C287.998,191.416,288.016,190.835,288.047,190.258z M128.479,140.12c2.144-8.573,10.83-13.786,19.403-11.642
	c0.723,0.181,17.903,4.526,35.274,13.211c18.19,9.096,39.78,24.842,40.796,48.569c0.031,0.577,0.049,1.157,0.049,1.742
	c0,17.673-14.327,32-32,32s-32-14.327-32-32c0-8.427,3.263-16.088,8.587-21.803c-9.207-4.615-19.655-8.45-28.468-10.675
	C131.549,157.379,126.337,148.692,128.479,140.12z M256,416c-58.255,0-109.232-31.137-137.213-77.672l41.164-24.698
	C179.538,346.204,215.222,368,256,368c40.777,0,76.462-21.796,96.049-54.37l41.164,24.698C365.232,384.863,314.255,416,256,416z"/>
</svg>
