<?xml version="1.0" encoding="utf-8"?>
<!-- Generator: Adobe Illustrator 16.0.4, SVG Export Plug-In . SVG Version: 6.00 Build 0)  -->
<!DOCTYPE svg PUBLIC "-//W3C//DTD SVG 1.1//EN" "http://www.w3.org/Graphics/SVG/1.1/DTD/svg11.dtd">
<svg version="1.1" id="Capa_1" xmlns="http://www.w3.org/2000/svg" xmlns:xlink="http://www.w3.org/1999/xlink" x="0px" y="0px"
	 width="512px" height="512px" viewBox="0 0 512 512" enable-background="new 0 0 512 512" xml:space="preserve">
<path d="M192,256c0,35.346,28.654,64,64,64c35.346,0,64-28.654,64-64c0-35.346-28.654-64-64-64C220.654,192,192,220.654,192,256z
	 M332.174,115.263C382.1,142.342,416,195.212,416,256s-33.9,113.658-83.826,140.737C354.207,361.674,368,311.602,368,256
	C368,200.398,354.207,150.326,332.174,115.263z M144,256c0,55.602,13.792,105.674,35.826,140.737C129.9,369.657,96,316.788,96,256
	s33.9-113.657,83.826-140.737C157.792,150.326,144,200.398,144,256z M48,256c0,85.95,27.202,163.092,70.326,215.861
	C47.175,426.387,0,346.704,0,256S47.175,85.613,118.326,40.139C75.202,92.908,48,170.05,48,256z M393.676,40.14
	C464.825,85.613,512,165.296,512,256s-47.175,170.387-118.324,215.86C436.798,419.092,464,341.95,464,256
	S436.798,92.908,393.676,40.14z"/>
</svg>
