<?xml version="1.0" encoding="utf-8"?>
<!-- Generator: Adobe Illustrator 16.0.4, SVG Export Plug-In . SVG Version: 6.00 Build 0)  -->
<!DOCTYPE svg PUBLIC "-//W3C//DTD SVG 1.1//EN" "http://www.w3.org/Graphics/SVG/1.1/DTD/svg11.dtd">
<svg version="1.1" id="Capa_1" xmlns="http://www.w3.org/2000/svg" xmlns:xlink="http://www.w3.org/1999/xlink" x="0px" y="0px"
	 width="512px" height="512px" viewBox="0 0 512 512" enable-background="new 0 0 512 512" xml:space="preserve">
<path d="M446.059,94.059l-60.116-60.118C367.273,15.273,330.4,0,304,0H80C53.6,0,32,21.6,32,48v416c0,26.4,21.6,48,48,48h352
	c26.4,0,48-21.6,48-48V176C480,149.6,464.727,112.727,446.059,94.059z M320,67.781c1.098,0.402,2.226,0.84,3.379,1.318
	c9.03,3.741,15.299,8.088,17.309,10.097l60.117,60.119c2.01,2.009,6.356,8.277,10.098,17.307c0.478,1.153,0.916,2.281,1.317,3.378
	H320V67.781z M416,448H96V64h192v128h128V448z"/>
</svg>
