<?xml version="1.0" encoding="utf-8"?>
<!-- Generator: Adobe Illustrator 16.0.4, SVG Export Plug-In . SVG Version: 6.00 Build 0)  -->
<!DOCTYPE svg PUBLIC "-//W3C//DTD SVG 1.1//EN" "http://www.w3.org/Graphics/SVG/1.1/DTD/svg11.dtd">
<svg version="1.1" id="Capa_1" xmlns="http://www.w3.org/2000/svg" xmlns:xlink="http://www.w3.org/1999/xlink" x="0px" y="0px"
	 width="512px" height="512px" viewBox="0 0 512 512" enable-background="new 0 0 512 512" xml:space="preserve">
<path d="M416,86.153c38.233,0,72.546-20.811,96-36.553v297.845C488.546,363.188,454.233,384,416,384s-72.546-11.335-96-27.078
	c-23.454-15.74-57.768-27.074-96-27.074c-38.233,0-72.545,19.457-96,35.197V67.2C151.455,51.458,185.767,32,224,32
	c38.232,0,72.546,11.334,96,27.076C343.454,74.818,377.767,86.153,416,86.153z M64,0c17.673,0,32,14.327,32,32v480H32V32
	C32,14.327,46.327,0,64,0z"/>
</svg>
