<?xml version="1.0" encoding="utf-8"?>
<!-- Generator: Adobe Illustrator 16.0.4, SVG Export Plug-In . SVG Version: 6.00 Build 0)  -->
<!DOCTYPE svg PUBLIC "-//W3C//DTD SVG 1.1//EN" "http://www.w3.org/Graphics/SVG/1.1/DTD/svg11.dtd">
<svg version="1.1" id="Capa_1" xmlns="http://www.w3.org/2000/svg" xmlns:xlink="http://www.w3.org/1999/xlink" x="0px" y="0px"
	 width="512px" height="512px" viewBox="0 0 512 512" enable-background="new 0 0 512 512" xml:space="preserve">
<path d="M432,0c-44.186,0-80,35.816-80,80v240h64v192h96V80C512,35.816,476.183,0,432,0z M208,0c-8.838,0-16,7.164-16,16v112
	c0,4.418-7.164,8-16,8c-8.838,0-16-3.582-16-8V16c0-8.836-7.164-16-16-16c-8.837,0-16,7.164-16,16v112c0,4.418-7.164,8-16,8
	c-8.837,0-16-3.582-16-8V16c0-8.836-7.164-16-16-16c-8.837,0-16,7.164-16,16v112c0,4.418-7.164,8-16,8s-16-3.582-16-8V16
	c0-8.836-7.164-16-16-16S0,7.164,0,16v112v32c0,14.159,12.529,22.055,26.502,32C44.107,204.532,64,220.318,64,256v256h96V256
	c0-35.682,19.893-51.468,37.496-64C211.469,182.055,224,174.159,224,160v-32V16C224,7.164,216.837,0,208,0z"/>
</svg>
