<?xml version="1.0" encoding="utf-8"?>
<!-- Generator: Adobe Illustrator 16.0.4, SVG Export Plug-In . SVG Version: 6.00 Build 0)  -->
<!DOCTYPE svg PUBLIC "-//W3C//DTD SVG 1.1//EN" "http://www.w3.org/Graphics/SVG/1.1/DTD/svg11.dtd">
<svg version="1.1" id="Capa_1" xmlns="http://www.w3.org/2000/svg" xmlns:xlink="http://www.w3.org/1999/xlink" x="0px" y="0px"
	 width="512px" height="512px" viewBox="0 0 512 512" enable-background="new 0 0 512 512" xml:space="preserve">
<path d="M240,32C107.452,32,0,139.452,0,272c0,132.549,107.452,240,240,240c132.549,0,240-107.451,240-240
	C480,139.452,372.549,32,240,32z M375.795,352c4.29-20.227,6.998-41.695,7.879-64h63.724c-1.669,22.098-6.812,43.557-15.341,64
	H375.795z M104.205,192c-4.29,20.227-6.998,41.696-7.879,64H32.604c1.668-22.097,6.811-43.557,15.339-64H104.205z M343.018,192
	c4.808,20.481,7.699,41.927,8.641,64H256v-64H343.018z M256,160V66.331c7.295,2.123,14.521,5.685,21.614,10.685
	c13.291,9.37,26.006,23.804,36.77,41.743c7.441,12.401,13.876,26.208,19.248,41.242L256,160L256,160z M165.616,118.758
	c10.764-17.939,23.478-32.374,36.77-41.743c7.091-5,14.319-8.562,21.614-10.685V160h-77.632
	C151.741,144.967,158.176,131.16,165.616,118.758z M224,192v64h-95.657c0.94-22.073,3.833-43.519,8.639-64H224z M47.944,352
	c-8.528-20.443-13.671-41.902-15.339-64h63.722c0.881,22.305,3.589,43.773,7.879,64H47.944z M128.343,288H224v64h-87.018
	C132.176,331.52,129.283,310.073,128.343,288z M224,384v93.67c-7.294-2.123-14.522-5.686-21.614-10.685
	c-13.292-9.37-26.007-23.806-36.77-41.743c-7.441-12.402-13.875-26.209-19.249-41.242H224z M314.384,425.242
	c-10.764,17.938-23.479,32.373-36.77,41.743c-7.093,4.999-14.319,8.562-21.614,10.685V384h77.633
	C328.26,399.033,321.825,412.84,314.384,425.242z M256,352v-64h95.657c-0.94,22.073-3.833,43.52-8.641,64H256z M383.674,256
	c-0.881-22.304-3.589-43.773-7.879-64h56.262c8.528,20.443,13.672,41.903,15.341,64H383.674z M415.329,160h-47.95
	c-9.319-29.381-22.188-55.147-37.658-75.714c21.269,10.17,40.529,23.808,57.357,40.636C397.818,135.661,407.259,147.391,415.329,160
	z M92.922,124.922c16.829-16.829,36.09-30.466,57.357-40.636c-15.471,20.567-28.338,46.333-37.658,75.714H64.672
	C72.741,147.391,82.183,135.661,92.922,124.922z M64.672,384h47.949c9.32,29.381,22.188,55.147,37.659,75.715
	c-21.268-10.17-40.529-23.808-57.357-40.637C82.183,408.339,72.741,396.609,64.672,384z M387.078,419.078
	c-16.828,16.829-36.09,30.467-57.357,40.637c15.472-20.566,28.339-46.334,37.658-75.715h47.95
	C407.259,396.609,397.818,408.339,387.078,419.078z"/>
</svg>
