<?xml version="1.0" encoding="utf-8"?>
<!-- Generator: Adobe Illustrator 16.0.4, SVG Export Plug-In . SVG Version: 6.00 Build 0)  -->
<!DOCTYPE svg PUBLIC "-//W3C//DTD SVG 1.1//EN" "http://www.w3.org/Graphics/SVG/1.1/DTD/svg11.dtd">
<svg version="1.1" id="Capa_1" xmlns="http://www.w3.org/2000/svg" xmlns:xlink="http://www.w3.org/1999/xlink" x="0px" y="0px"
	 width="512px" height="512px" viewBox="0 0 512 512" enable-background="new 0 0 512 512" xml:space="preserve">
<path d="M426.756,0H84.621C37.571,0,0,38.893,0,85.939v340.176C0,474.326,37.571,512,84.621,512h342.134
	C473.803,512,512,474.326,512,426.115V85.939C512,38.893,473.803,0,426.756,0z M352,16v80h-80V16H352z M240,16v80h-80V16H240z
	 M16,96V85.939C16,47.375,46.783,16,84.621,16H128v80H16z M384,320h-96v96h-64v-96h-96v-64h96v-96h64v96h96V320z M496,96H384V16
	h42.756C464.938,16,496,47.375,496,85.939V96z"/>
</svg>
