<?xml version="1.0" encoding="utf-8"?>
<!-- Generator: Adobe Illustrator 16.0.4, SVG Export Plug-In . SVG Version: 6.00 Build 0)  -->
<!DOCTYPE svg PUBLIC "-//W3C//DTD SVG 1.1//EN" "http://www.w3.org/Graphics/SVG/1.1/DTD/svg11.dtd">
<svg version="1.1" id="Capa_1" xmlns="http://www.w3.org/2000/svg" xmlns:xlink="http://www.w3.org/1999/xlink" x="0px" y="0px"
	 width="512px" height="512px" viewBox="0 0 512 512" enable-background="new 0 0 512 512" xml:space="preserve">
<path d="M488.791,97.231c-16.992-4.854-34.705,4.985-39.56,21.978L446.72,128H148.249l-4.496-35.969
	C141.751,76.017,128.138,64,112,64H32C14.327,64,0,78.327,0,96s14.327,32,32,32h51.751l28.496,227.969
	C114.249,371.982,127.862,384,144,384h272c14.287,0,26.844-9.473,30.769-23.209l64-224
	C515.624,119.798,505.784,102.086,488.791,97.231z M256,256v-32h63.998v32H256z M319.998,288v32H256v-32H319.998z M256,192v-32
	h63.998v32H256z M152.249,160H224v32h-67.751L152.249,160z M160.249,224H224v32h-59.751L160.249,224z M168.249,288H224v32h-51.751
	L168.249,288z M391.862,320h-39.864v-32h49.007L391.862,320z M410.148,256h-58.15v-32h67.293L410.148,256z M428.434,192h-76.436v-32
	h85.579L428.434,192z M128,464c0,26.51,21.49,48,48,48s48-21.49,48-48l0,0c0-26.51-21.49-48-48-48S128,437.49,128,464z M320,464
	c0,26.51,21.49,48,48,48s48-21.49,48-48l0,0c0-26.51-21.49-48-48-48S320,437.49,320,464z"/>
</svg>
