<?xml version="1.0" encoding="utf-8"?>
<!-- Generator: Adobe Illustrator 16.0.4, SVG Export Plug-In . SVG Version: 6.00 Build 0)  -->
<!DOCTYPE svg PUBLIC "-//W3C//DTD SVG 1.1//EN" "http://www.w3.org/Graphics/SVG/1.1/DTD/svg11.dtd">
<svg version="1.1" id="Capa_1" xmlns="http://www.w3.org/2000/svg" xmlns:xlink="http://www.w3.org/1999/xlink" x="0px" y="0px"
	 width="512px" height="512px" viewBox="0 0 512 512" enable-background="new 0 0 512 512" xml:space="preserve">
<path d="M505.087,457.875L230.77,208.146l12.767-12.799c10.447-10.477,16.094-24.015,16.959-37.805
	c0.501-0.225,1.001-0.456,1.479-0.721l51.495-32.201c6.968-8.196,6.458-21.134-1.142-28.751l-89.56-89.804
	c-7.595-7.617-20.499-8.131-28.672-1.142l-32.118,51.634c-0.263,0.483-0.495,0.983-0.72,1.487
	c-13.751,0.868-27.25,6.528-37.699,17.003l-48.714,48.851c-10.449,10.478-16.092,24.013-16.959,37.802
	c-0.502,0.225-1.002,0.458-1.482,0.723L4.911,194.626c-6.971,8.195-6.458,21.132,1.138,28.748l89.56,89.802
	c7.597,7.619,20.498,8.131,28.675,1.143l32.114-51.635c0.264-0.479,0.494-0.979,0.721-1.482
	c13.751-0.869,27.252-6.525,37.699-17.002l14.146-14.186L458.025,505.07c7.218,7.972,18.35,9.259,24.736,2.855l25.179-25.244
	C514.322,476.278,513.038,465.116,505.087,457.875z"/>
</svg>
