<?xml version="1.0" encoding="utf-8"?>
<!-- Generator: Adobe Illustrator 16.0.4, SVG Export Plug-In . SVG Version: 6.00 Build 0)  -->
<!DOCTYPE svg PUBLIC "-//W3C//DTD SVG 1.1//EN" "http://www.w3.org/Graphics/SVG/1.1/DTD/svg11.dtd">
<svg version="1.1" id="Capa_1" xmlns="http://www.w3.org/2000/svg" xmlns:xlink="http://www.w3.org/1999/xlink" x="0px" y="0px"
	 width="512px" height="512px" viewBox="0 0 512 512" enable-background="new 0 0 512 512" xml:space="preserve">
<path d="M160,448V274.096C119.545,285.324,109.704,291,67,291c-36.944,0-67-30.057-67-67c0-36.943,30.056-67,67-67
	c51.986,0,75.975-19.361,102.855-57.545c0.798-1.134,1.581-2.289,2.355-3.455H128V0h320v96h-28.502
	c2.151,31.831,11.096,40.56,22.042,51.223c8.445,8.226,18.956,18.464,26.638,37.015C476.243,203.715,480,229.061,480,264v24v8.49
	c0,30.969-25.634,56.162-57.143,56.162c-5.235,0-10.438-0.711-15.45-2.094c-10.498,9.854-24.501,15.481-39.407,15.481
	c-5.234,0-10.438-0.712-15.449-2.095c-10.499,9.854-24.503,15.481-39.408,15.481c-9.018,0-17.55-2.071-25.143-5.743V448
	c0,35.347-28.652,64-64,64C188.654,512,160,483.347,160,448z M416,48c0-8.836-7.163-16-16-16s-16,7.164-16,16s7.163,16,16,16
	S416,56.836,416,48z M256,445V320.266V317h32v3.266c0,13.323,11.279,24.164,25.143,24.164c8.686,0,16.646-4.234,21.293-11.328
	l8.122-12.394l12.979,7.149c3.781,2.082,8.091,3.184,12.463,3.184c8.685,0,16.645-4.234,21.291-11.326l8.122-12.395l12.979,7.148
	c3.781,2.083,8.092,3.184,12.465,3.184c13.862,0,25.143-10.84,25.143-24.162V285v-24c0-63.281-19.103-76.044-32.975-89.556
	c-14.16-13.794-29.992-29.245-33.364-75.444H214.474c-4.132,7.878-8.632,15.35-13.545,22.329C167,166.525,131.156,192,67,192
	c-15.991,0-29,15.01-29,31s13.009,30,29,30c42.83,0,52.706-6.207,93-18.48c11.371-3.062,22.635-5.961,31.667-7.938L192,445
	c0,17.645,14.355,32,32,32S256,462.645,256,445z"/>
</svg>
