<?xml version="1.0" encoding="utf-8"?>
<!-- Generator: Adobe Illustrator 16.0.4, SVG Export Plug-In . SVG Version: 6.00 Build 0)  -->
<!DOCTYPE svg PUBLIC "-//W3C//DTD SVG 1.1//EN" "http://www.w3.org/Graphics/SVG/1.1/DTD/svg11.dtd">
<svg version="1.1" id="Capa_1" xmlns="http://www.w3.org/2000/svg" xmlns:xlink="http://www.w3.org/1999/xlink" x="0px" y="0px"
	 width="512px" height="512px" viewBox="0 0 512 512" enable-background="new 0 0 512 512" xml:space="preserve">
<path d="M160,64v173.904C119.545,226.676,109.704,221,67,221c-36.944,0-67,30.056-67,67c0,36.943,30.056,67,67,67
	c51.986,0,75.975,19.361,102.855,57.545c0.798,1.134,1.581,2.289,2.355,3.455H128v96h320v-96h-28.502
	c2.151-31.831,11.096-40.561,22.042-51.223c8.445-8.227,18.956-18.465,26.638-37.016C476.243,308.285,480,282.939,480,248v-24v-8.49
	c0-30.969-25.634-56.163-57.143-56.163c-5.235,0-10.438,0.712-15.45,2.095c-10.498-9.855-24.501-15.482-39.407-15.482
	c-5.234,0-10.438,0.712-15.449,2.095c-10.499-9.855-24.503-15.482-39.408-15.482c-9.018,0-17.55,2.071-25.143,5.744V64
	c0-35.347-28.652-64-64-64C188.654,0,160,28.653,160,64z M416,464c0,8.836-7.163,16-16,16s-16-7.164-16-16s7.163-16,16-16
	S416,455.164,416,464z M256,67v124.734V195h32v-3.266c0-13.323,11.279-24.163,25.143-24.163c8.686,0,16.646,4.234,21.293,11.327
	l8.122,12.394l12.979-7.149c3.781-2.083,8.091-3.184,12.463-3.184c8.685,0,16.645,4.234,21.291,11.326l8.122,12.395l12.979-7.149
	c3.781-2.083,8.092-3.184,12.465-3.184c13.862,0,25.143,10.84,25.143,24.163V227v24c0,63.281-19.103,76.044-32.975,89.557
	c-14.16,13.793-29.992,29.244-33.364,75.443H214.474c-4.132-7.878-8.632-15.35-13.545-22.329C167,345.475,131.156,320,67,320
	c-15.991,0-29-15.01-29-31s13.009-30,29-30c42.83,0,52.706,6.207,93,18.48c11.371,3.062,22.635,5.961,31.667,7.938L192,67
	c0-17.645,14.355-32,32-32S256,49.355,256,67z"/>
</svg>
