<?xml version="1.0" encoding="utf-8"?>
<!-- Generator: Adobe Illustrator 16.0.4, SVG Export Plug-In . SVG Version: 6.00 Build 0)  -->
<!DOCTYPE svg PUBLIC "-//W3C//DTD SVG 1.1//EN" "http://www.w3.org/Graphics/SVG/1.1/DTD/svg11.dtd">
<svg version="1.1" id="Capa_1" xmlns="http://www.w3.org/2000/svg" xmlns:xlink="http://www.w3.org/1999/xlink" x="0px" y="0px"
	 width="512px" height="512px" viewBox="0 0 512 512" enable-background="new 0 0 512 512" xml:space="preserve">
<path d="M488,384h-8V280c0-30.878-25.121-56-56-56H288v-64h8c13.2,0,24-10.8,24-24V56c0-13.2-10.8-24-24-24h-80
	c-13.2,0-24,10.8-24,24v80c0,13.2,10.8,24,24,24h8v64H88c-30.878,0-56,25.122-56,56v104h-8c-13.2,0-24,10.8-24,24v80
	c0,13.2,10.8,24,24,24h80c13.2,0,24-10.8,24-24v-80c0-13.2-10.8-24-24-24h-8v-96h128v96h-8c-13.2,0-24,10.8-24,24v80
	c0,13.2,10.8,24,24,24h80c13.2,0,24-10.8,24-24v-80c0-13.2-10.8-24-24-24h-8v-96h128v96h-8c-13.2,0-24,10.8-24,24v80
	c0,13.2,10.8,24,24,24h80c13.2,0,24-10.8,24-24v-80C512,394.8,501.2,384,488,384z M96,480H32v-64h64V480z M288,480h-64v-64h64V480z
	 M224,128V64h64v64H224z M480,480h-64v-64h64V480z"/>
</svg>
