<?xml version="1.0" encoding="utf-8"?>
<!-- Generator: Adobe Illustrator 16.0.4, SVG Export Plug-In . SVG Version: 6.00 Build 0)  -->
<!DOCTYPE svg PUBLIC "-//W3C//DTD SVG 1.1//EN" "http://www.w3.org/Graphics/SVG/1.1/DTD/svg11.dtd">
<svg version="1.1" id="Capa_1" xmlns="http://www.w3.org/2000/svg" xmlns:xlink="http://www.w3.org/1999/xlink" x="0px" y="0px"
	 width="512px" height="512px" viewBox="0 0 512 512" enable-background="new 0 0 512 512" xml:space="preserve">
<path d="M364.496,256C433.373,212.333,480,128.396,480,32c0-10.838-0.596-21.517-1.739-32H33.74C32.595,10.484,32,21.163,32,32
	c0,96.396,46.627,180.333,115.503,224C78.627,299.667,32,383.604,32,480c0,10.838,0.595,21.517,1.739,32H478.26
	c1.145-10.483,1.739-21.162,1.739-32C480,383.604,433.373,299.667,364.496,256z M80,480c0-93.456,40.081-172.707,112-198.854
	v-50.293l0,0C120.081,204.708,80,125.457,80,32l0,0h352l0,0c0,93.457-40.081,172.708-112,198.853v50.293
	C391.919,307.293,432,386.544,432,480H80z M309.812,334.797c-35.826-20.322-37.804-46.684-37.812-62.683V240
	c0-15.997,1.902-42.457,37.872-62.832c19.252-11.182,35.904-28.174,48.524-49.168H153.605
	c12.633,21.016,29.306,38.021,48.583,49.203c35.827,20.322,37.803,46.683,37.813,62.683V272c0,15.996-1.902,42.457-37.872,62.832
	c-36.311,21.09-63.369,62.842-71.545,113.168h250.835C373.237,397.646,346.154,355.876,309.812,334.797z"/>
</svg>
