<?xml version="1.0" encoding="utf-8"?>
<!-- Generator: Adobe Illustrator 16.0.4, SVG Export Plug-In . SVG Version: 6.00 Build 0)  -->
<!DOCTYPE svg PUBLIC "-//W3C//DTD SVG 1.1//EN" "http://www.w3.org/Graphics/SVG/1.1/DTD/svg11.dtd">
<svg version="1.1" id="Capa_1" xmlns="http://www.w3.org/2000/svg" xmlns:xlink="http://www.w3.org/1999/xlink" x="0px" y="0px"
	 width="512px" height="512px" viewBox="0 0 512 512" enable-background="new 0 0 512 512" xml:space="preserve">
<path d="M367.101,314.415h118.025c0.91-8.185,1.274-16.549,1.274-25.099c0-40.111-10.768-77.733-29.562-110.132
	c19.44-51.654,18.746-95.494-7.278-121.695c-24.747-24.64-91.145-20.64-166.206,12.599c-5.552-0.42-11.158-0.636-16.818-0.636
	c-103.024,0-189.463,70.897-213.354,166.425C85.5,194.5,119.5,164.5,164.92,142.653c-4.13,3.87-28.227,27.826-32.28,31.882
	C12.866,294.273-24.905,450.688,15.737,491.337c30.893,30.887,86.879,25.671,151.188-5.824
	c29.903,15.229,63.75,23.815,99.609,23.815c96.566,0,178.401-62.158,208.045-148.725H355.645
	c-16.366,30.191-48.373,50.74-85.108,50.74c-36.734,0-68.742-20.549-85.108-50.74c-7.275-13.637-11.457-29.276-11.457-45.828v-0.36
	H367.101z M174.151,256.402c2.728-48.555,43.1-87.292,92.383-87.292s89.656,38.736,92.383,87.292H174.151z M448.483,81.904
	c16.763,16.94,16.344,48.107,2.006,87.011c-24.568-37.454-60.259-66.968-102.396-83.82
	C393.146,65.776,429.796,63.217,448.483,81.904z M46.741,483.628C25.35,462.23,31.799,417.319,59.356,363.212
	c17.154,48.135,50.578,88.545,93.668,114.577C105.309,499.448,66.256,503.126,46.741,483.628z"/>
</svg>
