<?xml version="1.0" encoding="utf-8"?>
<!-- Generator: Adobe Illustrator 16.0.4, SVG Export Plug-In . SVG Version: 6.00 Build 0)  -->
<!DOCTYPE svg PUBLIC "-//W3C//DTD SVG 1.1//EN" "http://www.w3.org/Graphics/SVG/1.1/DTD/svg11.dtd">
<svg version="1.1" id="Capa_1" xmlns="http://www.w3.org/2000/svg" xmlns:xlink="http://www.w3.org/1999/xlink" x="0px" y="0px"
	 width="512px" height="512px" viewBox="0 0 512 512" enable-background="new 0 0 512 512" xml:space="preserve">
<path d="M384,0H96C78.4,0,64,14.399,64,32v448c0,17.6,14.399,32,32,32h288c17.6,0,32-14.4,32-32V32C416,14.399,401.6,0,384,0z
	 M240,488.891c-13.746,0-24.891-11.145-24.891-24.891s11.145-24.891,24.891-24.891s24.891,11.145,24.891,24.891
	S253.746,488.891,240,488.891z M384,416H96V64h288V416z"/>
</svg>
