<?xml version="1.0" encoding="utf-8"?>
<!-- Generator: Adobe Illustrator 16.0.4, SVG Export Plug-In . SVG Version: 6.00 Build 0)  -->
<!DOCTYPE svg PUBLIC "-//W3C//DTD SVG 1.1//EN" "http://www.w3.org/Graphics/SVG/1.1/DTD/svg11.dtd">
<svg version="1.1" id="Capa_1" xmlns="http://www.w3.org/2000/svg" xmlns:xlink="http://www.w3.org/1999/xlink" x="0px" y="0px"
	 width="512px" height="512px" viewBox="0 0 512 512" enable-background="new 0 0 512 512" xml:space="preserve">
<path d="M445.387,354.577c-22.827-22.778-51.863-34.536-78.973-34.536h-14.556l-31.952-32.004l127.81-128.019
	c31.952-32.005,31.952-96.014,0-128.019L256.001,224.027L64.285,32c-31.952,32.004-31.952,96.014,0,128.019l127.811,128.017
	l-31.953,32.004h-14.557c-27.11,0-56.146,11.759-78.974,34.538C25.801,395.299,20.287,455.82,54.297,489.753
	C69.282,504.704,89.441,512,110.795,512c27.108,0,56.145-11.757,78.973-34.536c26.792-26.731,38.371-62,33.542-92.674l32.692-32.744
	l32.688,32.744c-4.828,30.674,6.754,65.941,33.543,92.674C345.062,500.243,374.098,512,401.206,512
	c21.354,0,41.512-7.296,56.497-22.248C491.713,455.819,486.197,395.298,445.387,354.577z M176.512,422.769
	c-3.849,8.941-9.505,17.174-16.813,24.464c-7.318,7.302-15.586,12.959-24.574,16.812c-8.066,3.458-16.48,5.284-24.331,5.284
	c-7.573,0-18.306-1.701-26.431-9.806c-8.068-8.053-9.76-18.659-9.76-26.145c0-7.771,1.821-16.104,5.263-24.105
	c3.85-8.942,9.507-17.173,16.813-24.464c7.317-7.303,15.586-12.957,24.575-16.812c8.067-3.457,16.48-5.284,24.332-5.284
	c7.573,0,18.306,1.7,26.429,9.807c8.067,8.049,9.761,18.658,9.761,26.143C181.777,406.433,179.957,414.77,176.512,422.769z
	 M256.002,333.298c-24.957,0-45.188-20.266-45.188-45.263c0-24.996,20.231-45.26,45.188-45.26s45.186,20.264,45.186,45.26
	C301.188,313.034,280.958,333.298,256.002,333.298z M427.636,459.521c-8.124,8.104-18.855,9.806-26.43,9.806
	c-7.853,0-16.265-1.826-24.333-5.284c-8.986-3.853-17.254-9.51-24.571-16.812c-7.307-7.29-12.963-15.521-16.812-24.464
	c-3.443-7.999-5.264-16.336-5.264-24.105c0-7.482,1.692-18.094,9.761-26.143c8.123-8.104,18.855-9.808,26.43-9.808
	c7.85,0,16.265,1.827,24.33,5.284c8.989,3.854,17.258,9.509,24.575,16.812c7.305,7.289,12.962,15.521,16.812,24.463
	c3.442,7.998,5.264,16.335,5.264,24.105C437.396,440.862,435.702,451.47,427.636,459.521z"/>
</svg>
