<?xml version="1.0" encoding="utf-8"?>
<!-- Generator: Adobe Illustrator 16.0.4, SVG Export Plug-In . SVG Version: 6.00 Build 0)  -->
<!DOCTYPE svg PUBLIC "-//W3C//DTD SVG 1.1//EN" "http://www.w3.org/Graphics/SVG/1.1/DTD/svg11.dtd">
<svg version="1.1" id="Capa_1" xmlns="http://www.w3.org/2000/svg" xmlns:xlink="http://www.w3.org/1999/xlink" x="0px" y="0px"
	 width="512px" height="512px" viewBox="0 0 512 512" enable-background="new 0 0 512 512" xml:space="preserve">
<path d="M440.317,65.387c12.849,6.288,24.047,15.243,32.251,26.241c17.268,23.15,22.117,54.686,14.418,93.733
	c-7.78,39.513-25.208,72.868-50.583,97.022c-4.642,4.852-9.611,9.373-14.902,13.54c-27.178,21.401-61.499,32.714-99.254,32.714
	h-6.056H202.217L169.935,480h-66.212l5.043-23.15h23.064l32.282-151.363h94.135c90.125,0,165.469-55.538,185.629-149.967
	C466.737,48.602,390.077,0,324.171,0H99.532L0,456.85h76.016L64,512h131.83l32.282-151.363h94.135
	c90.125,0,165.469-55.539,185.629-149.968C524.734,131.829,487.474,84.703,440.317,65.387z M211.172,93.041h64.566
	c32.296,0,53.801,27.769,44.393,62.478c-8.067,34.72-41.693,62.488-75.32,62.488h-61.879L211.172,93.041z"/>
</svg>
