<?xml version="1.0" encoding="utf-8"?>
<!-- Generator: Adobe Illustrator 16.0.4, SVG Export Plug-In . SVG Version: 6.00 Build 0)  -->
<!DOCTYPE svg PUBLIC "-//W3C//DTD SVG 1.1//EN" "http://www.w3.org/Graphics/SVG/1.1/DTD/svg11.dtd">
<svg version="1.1" id="Capa_1" xmlns="http://www.w3.org/2000/svg" xmlns:xlink="http://www.w3.org/1999/xlink" x="0px" y="0px"
	 width="512px" height="512px" viewBox="0 0 512 512" enable-background="new 0 0 512 512" xml:space="preserve">
<path d="M480.002,144.003L368.003,32.004l32-32l111.999,111.999L480.002,144.003z M448,176l-16,176C288,352,80,512,80,512
	l-26.565-26.565l136.832-136.831C195.754,350.787,201.734,352,208,352c26.51,0,48-21.49,48-48s-21.49-48-48-48s-48,21.49-48,48
	c0,6.266,1.213,12.245,3.397,17.732L26.565,458.565L0,432c0,0,160-208,160-352l176-16L448,176z"/>
</svg>
