<?xml version="1.0" encoding="utf-8"?>
<!-- Generator: Adobe Illustrator 16.0.4, SVG Export Plug-In . SVG Version: 6.00 Build 0)  -->
<!DOCTYPE svg PUBLIC "-//W3C//DTD SVG 1.1//EN" "http://www.w3.org/Graphics/SVG/1.1/DTD/svg11.dtd">
<svg version="1.1" id="Capa_1" xmlns="http://www.w3.org/2000/svg" xmlns:xlink="http://www.w3.org/1999/xlink" x="0px" y="0px"
	 width="512px" height="512px" viewBox="0 0 512 512" enable-background="new 0 0 512 512" xml:space="preserve">
<path d="M352,197.13L169.772,14.902C196.717,5.264,225.742,0,256,0c33.952,0,66.352,6.625,96,18.628V197.13z M384,352V34.257
	C460.517,78.521,512,161.246,512,256c0,33.952-6.625,66.352-18.628,96H384z M160,384h317.743C433.479,460.517,350.754,512,256,512
	c-33.952,0-66.352-6.625-96-18.628V384z M213.13,112L7.489,317.641C2.607,297.896,0,277.254,0,256
	C0,159.309,53.613,75.149,132.726,31.596L213.13,112z M128,250.87v226.873c-47.298-27.361-85.018-69.424-106.937-119.937L128,250.87
	z"/>
</svg>
