<?xml version="1.0" encoding="utf-8"?>
<!-- Generator: Adobe Illustrator 16.0.4, SVG Export Plug-In . SVG Version: 6.00 Build 0)  -->
<!DOCTYPE svg PUBLIC "-//W3C//DTD SVG 1.1//EN" "http://www.w3.org/Graphics/SVG/1.1/DTD/svg11.dtd">
<svg version="1.1" id="Capa_1" xmlns="http://www.w3.org/2000/svg" xmlns:xlink="http://www.w3.org/1999/xlink" x="0px" y="0px"
	 width="512px" height="512px" viewBox="0 0 512 512" enable-background="new 0 0 512 512" xml:space="preserve">
<path d="M358.774,0c-84.382,139.493-151.15,70.891-248.795,171.215c-86.168,88.533-56.291,195.153,16.262,231.872
	c71.615-36.594,144.884-118.411,199.225-236.862c0,0,48.833,149.572-100.745,293.687c72.634,85.074,195.914,25.886,230.363-109.459
	C492.533,203.316,394.89,53.505,358.774,0z M48.506,483.121C48.564,484.574,50.217,512,86.189,512
	c26.172,0,158.916-72.339,227.133-260.102C210.103,434.505,60.262,479.817,48.506,483.121z"/>
</svg>
