<?xml version="1.0" encoding="utf-8"?>
<!-- Generator: Adobe Illustrator 16.0.4, SVG Export Plug-In . SVG Version: 6.00 Build 0)  -->
<!DOCTYPE svg PUBLIC "-//W3C//DTD SVG 1.1//EN" "http://www.w3.org/Graphics/SVG/1.1/DTD/svg11.dtd">
<svg version="1.1" id="Capa_1" xmlns="http://www.w3.org/2000/svg" xmlns:xlink="http://www.w3.org/1999/xlink" x="0px" y="0px"
	 width="512px" height="512px" viewBox="0 0 512 512" enable-background="new 0 0 512 512" xml:space="preserve">
<path d="M128,32h256v64H128V32z M480,128H32c-17.6,0-32,14.4-32,32v160c0,17.6,14.398,32,32,32h96v128h256V352h96
	c17.6,0,32-14.4,32-32V160C512,142.4,497.6,128,480,128z M352,448H160V288h192V448z M487.2,176c0,12.813-10.387,23.2-23.199,23.2
	S440.8,188.813,440.8,176s10.389-23.2,23.201-23.2C476.814,152.8,487.2,163.187,487.2,176z"/>
</svg>
