<?xml version="1.0" encoding="utf-8"?>
<!-- Generator: Adobe Illustrator 16.0.4, SVG Export Plug-In . SVG Version: 6.00 Build 0)  -->
<!DOCTYPE svg PUBLIC "-//W3C//DTD SVG 1.1//EN" "http://www.w3.org/Graphics/SVG/1.1/DTD/svg11.dtd">
<svg version="1.1" id="Capa_1" xmlns="http://www.w3.org/2000/svg" xmlns:xlink="http://www.w3.org/1999/xlink" x="0px" y="0px"
	 width="512px" height="512px" viewBox="0 0 512 512" enable-background="new 0 0 512 512" xml:space="preserve">
<path d="M112.5,224c61.856,0,112,50.145,112,112c0,61.856-50.144,112-112,112s-112-50.144-112-112L0,320
	C0,196.288,100.288,96,224,96v64c-42.737,0-82.917,16.643-113.137,46.863c-5.817,5.818-11.126,12.008-15.915,18.51
	C100.667,224.473,106.528,224,112.5,224z M400.5,224c61.855,0,112,50.145,112,112c0,61.856-50.145,112-112,112s-112-50.144-112-112
	l-0.5-16c0-123.712,100.288-224,224-224v64c-42.737,0-82.917,16.643-113.137,46.863c-5.818,5.818-11.127,12.008-15.916,18.51
	C388.667,224.473,394.527,224,400.5,224z"/>
</svg>
