<?xml version="1.0" encoding="utf-8"?>
<!-- Generator: Adobe Illustrator 16.0.4, SVG Export Plug-In . SVG Version: 6.00 Build 0)  -->
<!DOCTYPE svg PUBLIC "-//W3C//DTD SVG 1.1//EN" "http://www.w3.org/Graphics/SVG/1.1/DTD/svg11.dtd">
<svg version="1.1" id="Capa_1" xmlns="http://www.w3.org/2000/svg" xmlns:xlink="http://www.w3.org/1999/xlink" x="0px" y="0px"
	 width="512px" height="512px" viewBox="0 0 512 512" enable-background="new 0 0 512 512" xml:space="preserve">
<path d="M256,0C114.615,0,0,114.615,0,256s114.615,256,256,256s256-114.615,256-256S397.385,0,256,0z M352,128
	c17.673,0,32,14.327,32,32s-14.327,32-32,32s-32-14.327-32-32S334.327,128,352,128z M160,128c17.673,0,32,14.327,32,32
	s-14.327,32-32,32s-32-14.327-32-32S142.327,128,160,128z M352.049,390.37C332.462,357.796,296.777,336,256,336
	c-40.778,0-76.462,21.796-96.049,54.37l-41.164-24.698C146.767,319.137,197.745,288,256,288c58.254,0,109.232,31.137,137.213,77.672
	L352.049,390.37z"/>
</svg>
