<?xml version="1.0" encoding="utf-8"?>
<!-- Generator: Adobe Illustrator 16.0.4, SVG Export Plug-In . SVG Version: 6.00 Build 0)  -->
<!DOCTYPE svg PUBLIC "-//W3C//DTD SVG 1.1//EN" "http://www.w3.org/Graphics/SVG/1.1/DTD/svg11.dtd">
<svg version="1.1" id="Capa_1" xmlns="http://www.w3.org/2000/svg" xmlns:xlink="http://www.w3.org/1999/xlink" x="0px" y="0px"
	 width="512px" height="512px" viewBox="0 0 512 512" enable-background="new 0 0 512 512" xml:space="preserve">
<path d="M64,464c0,26.51,21.49,48,48,48s48-21.49,48-48l0,0c0-26.51-21.49-48-48-48S64,437.49,64,464z M384,464
	c0,26.51,21.49,48,48,48s48-21.49,48-48l0,0c0-26.51-21.49-48-48-48S384,437.49,384,464z M480,256V64H64C64,28.654,35.347,0,0,0v32
	c17.645,0,32,14.355,32,32l24.037,206.027C41.39,281.756,32,299.777,32,320c0,35.348,28.654,64,64,64h384v-32H96
	c-17.673,0-32-14.327-32-32c0-0.109,0.007-0.218,0.008-0.328L480,256z"/>
</svg>
