<?xml version="1.0" encoding="utf-8"?>
<!-- Generator: Adobe Illustrator 16.0.4, SVG Export Plug-In . SVG Version: 6.00 Build 0)  -->
<!DOCTYPE svg PUBLIC "-//W3C//DTD SVG 1.1//EN" "http://www.w3.org/Graphics/SVG/1.1/DTD/svg11.dtd">
<svg version="1.1" id="Capa_1" xmlns="http://www.w3.org/2000/svg" xmlns:xlink="http://www.w3.org/1999/xlink" x="0px" y="0px"
	 width="512px" height="512px" viewBox="0 0 512 512" enable-background="new 0 0 512 512" xml:space="preserve">
<path d="M445.98,257.102c-9.043,0-17.675,1.76-25.532,4.928C415.195,204.851,365.303,160,304.448,160
	c-14.894,0-29.341,2.815-42.159,7.582c-4.98,1.851-6.289,3.76-6.289,7.458v201.356c0,3.883,3.12,7.117,7.062,7.498
	C263.23,383.912,444.83,384,446.007,384C482.459,384,512,355.592,512,320.553S482.433,257.102,445.98,257.102z M200,384h16
	l8-112.109L216,160h-16l-8,111.891L200,384z M152,384h-16l-8-81.375L136,224h16l8,80L152,384z M72,384h16l8-64l-8-64H72l-8,64
	L72,384z M8,352h16l8-32l-8-32H8l-8,32L8,352z"/>
</svg>
