<?xml version="1.0" encoding="utf-8"?>
<!-- Generator: Adobe Illustrator 16.0.4, SVG Export Plug-In . SVG Version: 6.00 Build 0)  -->
<!DOCTYPE svg PUBLIC "-//W3C//DTD SVG 1.1//EN" "http://www.w3.org/Graphics/SVG/1.1/DTD/svg11.dtd">
<svg version="1.1" id="Capa_1" xmlns="http://www.w3.org/2000/svg" xmlns:xlink="http://www.w3.org/1999/xlink" x="0px" y="0px"
	 width="512px" height="512px" viewBox="0 0 512 512" enable-background="new 0 0 512 512" xml:space="preserve">
<path d="M426.686,0H85.344C38.407,0,0.001,38.403,0.001,85.34v234.658L8,288h16l8,32l-8,32H8l-8-31.998v106.652
	C0.001,473.623,38.407,512,85.344,512h341.341C473.625,512,512,473.623,512,426.654V320.553C512,355.592,482.459,384,446.007,384
	c-1.177,0-182.776-0.088-182.944-0.105c-3.941-0.381-7.062-3.615-7.062-7.498V175.04c0-3.697,1.309-5.606,6.289-7.458
	c12.818-4.767,27.268-7.582,42.159-7.582c60.854,0,110.746,44.851,115.999,102.029c7.857-3.168,16.488-4.928,25.531-4.928
	c36.453,0,66.021,28.412,66.021,63.45V85.341C512,38.403,473.621,0,426.686,0z M88,384H72l-8-64l8-64h16l8,64L88,384z M152,384h-16
	l-8-81.375L136,224h16l8,80L152,384z M216,384h-16l-8-112.109L200,160h16l8,111.891L216,384z"/>
</svg>
