<?xml version="1.0" encoding="utf-8"?>
<!-- Generator: Adobe Illustrator 16.0.4, SVG Export Plug-In . SVG Version: 6.00 Build 0)  -->
<!DOCTYPE svg PUBLIC "-//W3C//DTD SVG 1.1//EN" "http://www.w3.org/Graphics/SVG/1.1/DTD/svg11.dtd">
<svg version="1.1" id="Capa_1" xmlns="http://www.w3.org/2000/svg" xmlns:xlink="http://www.w3.org/1999/xlink" x="0px" y="0px"
	 width="576px" height="512px" viewBox="0 0 576 512" enable-background="new 0 0 576 512" xml:space="preserve">
<path d="M240,64c-25.333,0-49.791,3.975-72.693,11.814c-21.462,7.347-40.557,17.718-56.751,30.823
	C80.534,130.932,64,162.038,64,194.224c0,17.995,5.033,35.474,14.96,51.949c10.343,17.17,25.949,32.897,45.13,45.479
	c15.22,9.983,25.468,25.976,28.181,43.975c0.451,2.995,0.815,6.003,1.09,9.016c1.361-1.26,2.712-2.557,4.057-3.896
	c12.069-12.02,28.344-18.656,45.161-18.656c2.674,0,5.359,0.168,8.047,0.51c9.68,1.226,19.562,1.848,29.374,1.848
	c25.333,0,49.79-3.975,72.692-11.814c21.463-7.346,40.558-17.717,56.752-30.822C399.467,257.516,416,226.41,416,194.224
	s-16.533-63.291-46.556-87.587c-16.194-13.106-35.289-23.476-56.752-30.823C289.79,67.975,265.333,64,240,64z M240,0L240,0
	c132.548,0,240,86.957,240,194.224S372.548,388.448,240,388.448c-12.729,0-25.223-0.81-37.417-2.355
	C151.03,437.44,91.497,446.647,32,448v-12.567c32.126-15.677,58-44.232,58-76.866c0-4.553-0.356-9.024-1.015-13.397
	C34.706,309.562,0,255.175,0,194.224C0,86.957,107.452,0,240,0z M498,435.343c0,27.972,18.157,52.449,46,65.886V512
	c-51.562-1.159-98.893-9.051-143.571-53.062c-10.569,1.324-21.396,2.02-32.429,2.02c-47.735,0-91.704-12.879-126.807-34.52
	c72.337-0.254,140.63-23.428,192.417-65.336c26.104-21.127,46.696-45.914,61.207-73.675C510.2,257.994,518,226.636,518,194.224
	c0-5.224-0.225-10.418-0.629-15.584C553.656,208.607,576,249.451,576,294.479c0,52.244-30.079,98.86-77.12,129.382
	C498.309,427.608,498,431.44,498,435.343z"/>
</svg>
