<?xml version="1.0" encoding="utf-8"?>
<!-- Generator: Adobe Illustrator 16.0.4, SVG Export Plug-In . SVG Version: 6.00 Build 0)  -->
<!DOCTYPE svg PUBLIC "-//W3C//DTD SVG 1.1//EN" "http://www.w3.org/Graphics/SVG/1.1/DTD/svg11.dtd">
<svg version="1.1" id="Capa_1" xmlns="http://www.w3.org/2000/svg" xmlns:xlink="http://www.w3.org/1999/xlink" x="0px" y="0px"
	 width="512px" height="512px" viewBox="0 0 512 512" enable-background="new 0 0 512 512" xml:space="preserve">
<path d="M64,128h64v96h32V32c0-17.6-14.4-32-32-32H64C46.4,0,32,14.4,32,32v192h32V128z M64,32h64v64H64V32z M480,32V0h-96
	c-17.601,0-32,14.4-32,32v160c0,17.6,14.399,32,32,32h96v-32h-96V32H480z M320,80V32c0-17.6-14.4-32-32-32h-96v224h96
	c17.6,0,32-14.4,32-32v-48c0-17.6-4.4-32-22-32C315.6,112,320,97.6,320,80z M288,192h-64v-64h64V192z M288,96h-64V32h64V96z
	 M416,288L208,512L96,368l41-35l71,74l176-151L416,288z"/>
</svg>
