<?xml version="1.0" encoding="utf-8"?>
<!-- Generator: Adobe Illustrator 16.0.4, SVG Export Plug-In . SVG Version: 6.00 Build 0)  -->
<!DOCTYPE svg PUBLIC "-//W3C//DTD SVG 1.1//EN" "http://www.w3.org/Graphics/SVG/1.1/DTD/svg11.dtd">
<svg version="1.1" id="Capa_1" xmlns="http://www.w3.org/2000/svg" xmlns:xlink="http://www.w3.org/1999/xlink" x="0px" y="0px"
	 width="512px" height="512px" viewBox="0 0 512 512" enable-background="new 0 0 512 512" xml:space="preserve">
<path d="M96,256c0-6.09,0.352-12.098,1.015-18.011l-92.49-30.052C1.567,223.507,0,239.569,0,256
	c0,73.615,31.083,139.961,80.827,186.662l57.142-78.648C111.907,335.551,96,297.635,96,256z M416,256
	c0,41.634-15.906,79.551-41.969,108.014l57.142,78.648C480.917,395.961,512,329.615,512,256c0-16.431-1.566-32.493-4.524-48.063
	l-92.489,30.052C415.648,243.903,416,249.91,416,256z M288,99.204c45.967,9.331,84.772,38.371,107.225,77.913l92.489-30.051
	C451.116,69.356,376.594,13.036,288,1.988V99.204z M116.775,177.116c22.453-39.542,61.258-68.582,107.225-77.913V1.988
	C135.406,13.036,60.885,69.356,24.287,147.065L116.775,177.116z M322.278,401.664C302.083,410.868,279.643,416,256,416
	c-23.642,0-46.083-5.132-66.277-14.335l-57.146,78.655C169.18,500.503,211.245,512,256,512s86.82-11.497,123.424-31.68
	L322.278,401.664z"/>
</svg>
