<?xml version="1.0" encoding="utf-8"?>
<!-- Generator: Adobe Illustrator 16.0.4, SVG Export Plug-In . SVG Version: 6.00 Build 0)  -->
<!DOCTYPE svg PUBLIC "-//W3C//DTD SVG 1.1//EN" "http://www.w3.org/Graphics/SVG/1.1/DTD/svg11.dtd">
<svg version="1.1" id="Capa_1" xmlns="http://www.w3.org/2000/svg" xmlns:xlink="http://www.w3.org/1999/xlink" x="0px" y="0px"
	 width="512px" height="512px" viewBox="0 0 512 512" enable-background="new 0 0 512 512" xml:space="preserve">
<path d="M448,64h-48v16c0,17.645-14.355,32-32,32s-32-14.355-32-32V64H176v16c0,17.645-14.355,32-32,32s-32-14.355-32-32V64H64
	c-17.6,0-32,14.4-32,32v352c0,17.6,14.4,32,32,32h384c17.6,0,32-14.4,32-32V96C480,78.4,465.6,64,448,64z M448,447.942
	c-0.017,0.02-0.038,0.041-0.058,0.058H64.057c-0.02-0.017-0.041-0.038-0.057-0.058V160h384V447.942z M144,96c8.836,0,16-7.164,16-16
	V16c0-8.836-7.164-16-16-16s-16,7.164-16,16v64C128,88.836,135.164,96,144,96z M368,96c8.836,0,16-7.164,16-16V16
	c0-8.836-7.164-16-16-16s-16,7.164-16,16v64C352,88.836,359.164,96,368,96z M288,192H128v32h128v64H128v32h128v64H128v32h160V192z
	 M352,416h32V192h-64v32h32V416z M436,492H76c-17.6,0-32-10.4-32-28v16c0,17.6,14.4,32,32,32h360c17.6,0,32-14.4,32-32v-16
	C468,481.6,453.6,492,436,492z"/>
</svg>
