<?xml version="1.0" encoding="utf-8"?>
<!-- Generator: Adobe Illustrator 16.0.4, SVG Export Plug-In . SVG Version: 6.00 Build 0)  -->
<!DOCTYPE svg PUBLIC "-//W3C//DTD SVG 1.1//EN" "http://www.w3.org/Graphics/SVG/1.1/DTD/svg11.dtd">
<svg version="1.1" id="Capa_1" xmlns="http://www.w3.org/2000/svg" xmlns:xlink="http://www.w3.org/1999/xlink" x="0px" y="0px"
	 width="512px" height="512px" viewBox="0 0 512 512" enable-background="new 0 0 512 512" xml:space="preserve">
<path d="M352,144c0,26.51,21.49,48,48,48s48-21.49,48-48s-21.49-48-48-48S352,117.49,352,144z M479.196,64.804
	c-43.739-43.738-114.653-43.738-158.394,0c-17.789,17.789-28.342,40.073-31.66,63.196l0,0L186.795,283.114
	c-13.753,0.704-27.388,4.208-39.983,10.508L67.866,231.91c-18.275-14.287-44.671-11.051-58.956,7.224
	c-14.286,18.275-11.051,44.671,7.224,58.956l77.967,60.946c-8.48,33.391,0.336,70.269,26.465,96.396
	c39.453,39.452,103.416,39.452,142.868,0c24.233-24.232,33.575-57.714,28.039-89.083L416,254.858l-0.001-0.001
	c23.124-3.319,45.408-13.872,63.197-31.661C522.935,179.458,522.935,108.543,479.196,64.804z M192,451.349
	c-37.195,0-67.349-30.151-67.349-67.349c0-0.355,0.021-0.707,0.027-1.062l33.456,26.152c7.68,6.003,16.791,8.912,25.837,8.912
	c12.481,0,24.836-5.54,33.119-16.136c14.286-18.275,11.051-44.671-7.224-58.956l-31.75-24.818c4.481-0.939,9.124-1.439,13.884-1.439
	c37.196,0,67.35,30.152,67.35,67.349C259.35,421.198,229.196,451.349,192,451.349z M400,224c-44.183,0-80-35.817-80-80
	s35.817-80,80-80s80,35.817,80,80S444.183,224,400,224z"/>
</svg>
