<?xml version="1.0" encoding="utf-8"?>
<!-- Generator: Adobe Illustrator 16.0.4, SVG Export Plug-In . SVG Version: 6.00 Build 0)  -->
<!DOCTYPE svg PUBLIC "-//W3C//DTD SVG 1.1//EN" "http://www.w3.org/Graphics/SVG/1.1/DTD/svg11.dtd">
<svg version="1.1" id="Capa_1" xmlns="http://www.w3.org/2000/svg" xmlns:xlink="http://www.w3.org/1999/xlink" x="0px" y="0px"
	 width="512px" height="512px" viewBox="0 0 512 512" enable-background="new 0 0 512 512" xml:space="preserve">
<path d="M96,289.143v221.716c5.227,0.748,10.567,1.143,16,1.143h16V288h-16C106.567,288,101.227,288.395,96,289.143z M384,288v224
	h16c5.434,0,10.773-0.395,16-1.143V289.143c-5.227-0.748-10.566-1.143-16-1.143H384z M512,256C512,114.615,397.385,0,256,0
	S0,114.615,0,256c0,30.709,5.414,60.152,15.328,87.438C5.592,360.038,0,379.363,0,400c0,44.677,26.163,83.239,64,101.216V298.784
	c-10.063,4.78-19.29,11.03-27.429,18.452C33.575,302.626,32,287.497,32,272C32,148.288,132.288,48,256,48s224,100.288,224,224
	c0,15.497-1.574,30.626-4.571,45.236c-8.14-7.422-17.364-13.672-27.429-18.452v202.432c37.838-17.977,64-56.539,64-101.216
	c0-20.637-5.592-39.962-15.328-56.562C506.586,316.152,512,286.709,512,256z"/>
</svg>
