<?xml version="1.0" encoding="utf-8"?>
<!-- Generator: Adobe Illustrator 16.0.4, SVG Export Plug-In . SVG Version: 6.00 Build 0)  -->
<!DOCTYPE svg PUBLIC "-//W3C//DTD SVG 1.1//EN" "http://www.w3.org/Graphics/SVG/1.1/DTD/svg11.dtd">
<svg version="1.1" id="Capa_1" xmlns="http://www.w3.org/2000/svg" xmlns:xlink="http://www.w3.org/1999/xlink" x="0px" y="0px"
	 width="512px" height="512px" viewBox="0 0 512 512" enable-background="new 0 0 512 512" xml:space="preserve">
<path d="M256,0C114.615,0,0,114.615,0,256s114.615,256,256,256s256-114.615,256-256S397.385,0,256,0z M160,256
	c0-53.02,42.98-96,96-96c53.02,0,96,42.98,96,96c0,53.02-42.98,96-96,96C202.98,352,160,309.02,160,256z M462.99,341.738
	L462.99,341.738l-88.71-36.745C380.539,289.9,384,273.355,384,256c0-17.355-3.461-33.901-9.72-48.993l61.062-25.293l27.647-11.452
	C473.944,196.673,480,225.627,480,256S473.943,315.327,462.99,341.738L462.99,341.738z M341.739,49.01L341.739,49.01L341.739,49.01
	l-36.745,88.71C289.902,131.461,273.355,128,256,128c-17.356,0-33.901,3.461-48.993,9.72l-17.23-41.599l-19.515-47.112
	C196.673,38.057,225.628,32,256,32C286.373,32,315.327,38.057,341.739,49.01z M49.01,170.262l47.112,19.515l41.599,17.23
	C131.462,222.099,128,238.645,128,256c0,17.355,3.461,33.9,9.72,48.993l-88.71,36.745C38.057,315.327,32,286.373,32,256
	S38.057,196.673,49.01,170.262z M170.262,462.99l11.452-27.647l25.293-61.063C222.099,380.539,238.645,384,256,384
	c17.355,0,33.9-3.461,48.993-9.721l36.745,88.711l0,0l0,0C315.327,473.942,286.373,480,256,480
	C225.628,480,196.673,473.943,170.262,462.99z"/>
</svg>
