<?xml version="1.0" encoding="utf-8"?>
<!-- Generator: Adobe Illustrator 16.0.4, SVG Export Plug-In . SVG Version: 6.00 Build 0)  -->
<!DOCTYPE svg PUBLIC "-//W3C//DTD SVG 1.1//EN" "http://www.w3.org/Graphics/SVG/1.1/DTD/svg11.dtd">
<svg version="1.1" id="Capa_1" xmlns="http://www.w3.org/2000/svg" xmlns:xlink="http://www.w3.org/1999/xlink" x="0px" y="0px"
	 width="512px" height="512px" viewBox="0 0 512 512" enable-background="new 0 0 512 512" xml:space="preserve">
<path d="M352,0H160L64,64v128h384V64L352,0z M320,160h-32v-21.333C288,132.8,283.2,128,277.333,128h-42.666
	c-5.866,0-10.667,4.8-10.667,10.667V160h-32v-53.333C192,100.8,196.801,96,202.667,96h106.665c5.867,0,10.668,4.8,10.668,10.667V160
	z M64,352.001h384V224H64V352.001z M192,266.666c0-5.867,4.801-10.666,10.667-10.666h106.665c5.867,0,10.668,4.799,10.668,10.666
	V320h-32v-21.334c0-5.867-4.8-10.666-10.667-10.666h-42.666c-5.866,0-10.667,4.799-10.667,10.666V320h-32V266.666z M64,512h384
	V384.001H64V512z M192,426.666c0-5.867,4.801-10.666,10.667-10.666h106.665c5.867,0,10.668,4.799,10.668,10.666V480h-32v-21.334
	c0-5.867-4.8-10.666-10.667-10.666h-42.666c-5.866,0-10.667,4.799-10.667,10.666V480h-32V426.666z"/>
</svg>
