<?xml version="1.0" encoding="utf-8"?>
<!-- Generator: Adobe Illustrator 16.0.4, SVG Export Plug-In . SVG Version: 6.00 Build 0)  -->
<!DOCTYPE svg PUBLIC "-//W3C//DTD SVG 1.1//EN" "http://www.w3.org/Graphics/SVG/1.1/DTD/svg11.dtd">
<svg version="1.1" id="Capa_1" xmlns="http://www.w3.org/2000/svg" xmlns:xlink="http://www.w3.org/1999/xlink" x="0px" y="0px"
	 width="512px" height="512px" viewBox="0 0 512 512" enable-background="new 0 0 512 512" xml:space="preserve">
<path d="M283.828,368.458c-40.972,19.06-79.079,18.858-104.67,17.01c-30.526-2.204-55.079-10.562-65.871-17.866
	c-6.65-4.502-15.692-2.761-20.195,3.892c-4.502,6.651-2.76,15.692,3.891,20.194c17.349,11.743,48.034,20.478,80.081,22.791
	c5.433,0.392,11.399,0.639,17.823,0.639c27.891,0,63.313-2.658,101.21-20.285c7.281-3.389,10.438-12.037,7.051-19.32
	S291.111,365.076,283.828,368.458z M445.474,346.908c1.394-126.344,14.382-365.103-227.485-345.806
	C-20.811,20.323,42.507,272.586,38.948,357.077C35.794,401.77,20.959,456.401,0,512h64.55c6.633-23.561,11.512-46.86,13.616-69.075
	c3.891,2.714,8.054,5.337,12.497,7.851c7.229,4.259,13.442,9.922,20.02,15.917c15.372,14.009,32.795,29.887,66.856,31.876
	c2.286,0.131,4.587,0.196,6.838,0.196c34.448,0,58.007-15.077,76.939-27.19c9.07-5.807,16.908-10.82,24.281-13.227
	c20.955-6.56,39.267-17.147,52.952-30.626c2.139-2.104,4.121-4.269,5.981-6.474c7.623,27.938,18.059,59.379,29.644,90.752H512
	C478.913,460.888,444.782,410.812,445.474,346.908z M62.055,278.176c0-0.008,0-0.015-0.001-0.023
	c-2.373-41.23,17.355-75.916,44.063-77.467c26.706-1.553,50.28,30.614,52.652,71.846c0,0.007,0.002,0.015,0.002,0.021
	c0.128,2.223,0.184,4.424,0.185,6.604c-8.462,2.128-16.096,5.218-22.936,8.814c-0.026-0.306-0.046-0.607-0.076-0.914
	c0-0.005,0-0.01,0-0.014c-2.285-23.404-14.786-41.08-27.926-39.479c-13.14,1.602-21.94,21.875-19.656,45.279
	c0,0.005,0.002,0.009,0.002,0.013c0.996,10.205,3.934,19.318,8.021,26.223c-1.017,0.802-3.892,2.906-7.203,5.328
	c-2.485,1.816-5.51,4.029-9.157,6.715C70.084,318.074,63.272,299.331,62.055,278.176z M332.63,380.089
	c-0.95,21.793-29.454,42.296-55.791,50.522l-0.147,0.048c-10.95,3.551-20.714,9.8-31.052,16.415
	c-17.366,11.111-35.323,22.604-61.261,22.604c-1.702,0-3.447-0.052-5.163-0.147c-23.758-1.39-34.871-11.517-48.94-24.338
	c-7.421-6.764-15.095-13.758-24.988-19.562l-0.212-0.122c-21.353-12.052-34.606-27.041-35.454-40.097
	c-0.421-6.49,2.469-12.109,8.591-16.7c13.318-9.986,22.239-16.511,28.142-20.829c6.555-4.794,8.534-6.239,10-7.632
	c1.048-0.993,2.182-2.094,3.402-3.281c12.223-11.887,32.68-31.781,64.075-31.781c19.202,0,40.449,7.4,63.085,21.951
	c10.662,6.939,19.941,10.143,31.689,14.2c8.078,2.789,17.234,5.951,29.496,11.202l0.198,0.082
	C319.74,357.325,333.248,365.904,332.63,380.089z M326.323,328.902c-2.2-1.106-4.487-2.159-6.872-3.143
	c-11.053-4.728-19.916-7.937-27.268-10.498c4.059-7.947,6.58-17.861,6.812-28.621c0-0.006,0-0.012,0-0.016
	c0.562-26.188-12.645-47.448-29.498-47.488c-16.855-0.039-30.975,21.157-31.538,47.343c0,0.004,0,0.008,0,0.014
	c-0.019,0.857-0.021,1.708-0.01,2.555c-10.381-4.775-20.59-8.244-30.583-10.38c-0.046-0.983-0.102-1.966-0.122-2.96
	c0-0.008,0-0.018,0-0.025c-0.969-47.706,28.301-87.195,65.377-88.201c37.075-1.007,67.914,36.85,68.886,84.555
	c0,0.009,0,0.019,0,0.026C341.945,293.637,336.178,313.497,326.323,328.902z"/>
</svg>
