<?xml version="1.0" encoding="utf-8"?>
<!-- Generator: Adobe Illustrator 16.0.4, SVG Export Plug-In . SVG Version: 6.00 Build 0)  -->
<!DOCTYPE svg PUBLIC "-//W3C//DTD SVG 1.1//EN" "http://www.w3.org/Graphics/SVG/1.1/DTD/svg11.dtd">
<svg version="1.1" id="Capa_1" xmlns="http://www.w3.org/2000/svg" xmlns:xlink="http://www.w3.org/1999/xlink" x="0px" y="0px"
	 width="512px" height="512px" viewBox="0 0 512 512" enable-background="new 0 0 512 512" xml:space="preserve">
<path d="M426.688,0H85.344C38.406,0,0,38.406,0,85.341v341.313C0,473.625,38.406,512,85.344,512h341.34
	C473.622,512,512,473.623,512,426.652V85.341C512,38.406,473.622,0,426.688,0z M144,336c-44.183,0-80-35.816-80-80
	c0-44.183,35.817-80,80-80s80,35.817,80,80C224,300.184,188.183,336,144,336z M368,336c-44.184,0-80-35.816-80-80
	c0-44.183,35.816-80,80-80s80,35.817,80,80C448,300.184,412.184,336,368,336z"/>
</svg>
