<?xml version="1.0" encoding="utf-8"?>
<!-- Generator: Adobe Illustrator 16.0.4, SVG Export Plug-In . SVG Version: 6.00 Build 0)  -->
<!DOCTYPE svg PUBLIC "-//W3C//DTD SVG 1.1//EN" "http://www.w3.org/Graphics/SVG/1.1/DTD/svg11.dtd">
<svg version="1.1" id="Capa_1" xmlns="http://www.w3.org/2000/svg" xmlns:xlink="http://www.w3.org/1999/xlink" x="0px" y="0px"
	 width="512px" height="512px" viewBox="0 0 512 512" enable-background="new 0 0 512 512" xml:space="preserve">
<path d="M426.671,0H85.343C38.406,0,0,38.405,0,85.345v341.311C0,473.625,38.406,512,85.343,512h341.328
	C473.609,512,512,473.625,512,426.655V85.345C512,38.405,473.609,0,426.671,0z M155.889,333.395h-55.632
	c-3.351,0-5.854-1.504-7.271-3.793c-1.467-2.379-1.542-5.463,0-8.533l59.11-104.313c0.063-0.114,0.063-0.19,0-0.316l-37.615-65.116
	c-1.556-3.098-1.783-6.157-0.316-8.534c1.417-2.301,4.235-3.477,7.586-3.477h55.632c8.535,0,12.72,5.499,15.489,10.431
	c0,0,38.02,66.33,38.249,66.696c-2.252,3.97-60.059,106.209-60.059,106.209C168.218,327.779,164.21,333.395,155.889,333.395z
	 M418.956,75.269l-123.177,217.79c-0.074,0.115-0.074,0.256,0,0.367l78.432,143.295c1.556,3.084,1.593,6.222,0.113,8.598
	c-1.415,2.288-4.033,3.552-7.383,3.552h-55.57c-8.521,0-12.783-5.663-15.54-10.596c0,0-78.848-144.646-79.05-145.023
	c3.944-6.979,123.797-219.523,123.797-219.523c2.984-5.362,6.587-10.596,14.894-10.596h56.203c3.352,0,5.981,1.265,7.396,3.553
	C420.537,69.061,420.499,72.196,418.956,75.269z"/>
</svg>
